<svg height="512pt" viewBox="0 -1 512 512" width="512pt" xmlns="http://www.w3.org/2000/svg"><path d="m504.371094 165.914062c-4.21875 0-7.628906 3.417969-7.628906 7.628907v71.773437c0 19.667969-16.007813 35.679688-35.675782 35.679688-8.152344 0-170.941406 0-179.085937 0v-38.621094c43.027343-12.046875 65.003906-44.886719 73.839843-55.492188l52.546876 56.640626c2.863281 3.089843 7.691406 3.269531 10.78125.40625 3.085937-2.867188 3.269531-7.691407.402343-10.78125l-55.066406-59.355469c15.382813-25.042969 27.757813-56.828125 34.484375-85.289063h37.667969c4.214843 0 7.628906-3.414062 7.628906-7.628906s-3.414063-7.628906-7.628906-7.628906c-34.425781 0-42.175781 0-76.179688 0v-31.589844c0-4.214844-3.414062-7.628906-7.628906-7.628906-4.210937 0-7.628906 3.414062-7.628906 7.628906v31.589844h-83.996094c-4.210937 0-7.625 3.417968-7.625 7.628906 0 4.214844 3.414063 7.628906 7.625 7.628906h122.035156c-6.257812 24.652344-16.570312 51.496094-29.550781 73.652344l-41.265625-44.480469c-2.863281-3.089843-7.691406-3.273437-10.78125-.40625-3.085937 2.863281-3.269531 7.691407-.402344 10.78125l44.023438 47.453125c-2.097657 2.101563-23.300781 38.53125-64.1875 51.273438-4.148438-20.425782-22.242188-35.84375-43.875-35.84375h-36.09375v-140c0-16.585938 11.246093-30.855469 27.347656-34.703125 4.097656-.972657 6.632813-5.09375 5.644531-9.191407-.976562-4.089843-5.085937-6.621093-9.183594-5.644531-23.007812 5.492188-39.066406 25.863281-39.066406 49.539063v140h-108.480468c-4.21875 0-7.628907 3.417968-7.628907 7.628906 0 4.21875 3.410157 7.625 7.628907 7.625h159.832031c16.386719 0 29.527343 13.367188 29.527343 29.527344v166.769531c0 16.269531-13.242187 29.523437-29.527343 29.523437-6.183594 0-186.136719 0-192.417969 0-16.28125 0-29.523438-13.253906-29.523438-29.523437v-166.769531c0-15.046875 11.316407-29.527344 31.597657-29.527344 4.210937 0 7.628906-3.40625 7.628906-7.625 0-4.210938-3.417969-7.628906-7.628906-7.628906-29.105469 0-46.855469 21.746094-46.855469 44.78125v166.769531c0 22.210937 16.261719 40.710937 37.519531 44.191406l-25.527343 39.417969c-9.046876 13.96875 8.210937 30.128906 21.570312 20.046875l77.734375-58.875h125.902344c24.695312 0 44.78125-20.097656 44.78125-44.78125v-106.234375h101.960937l90.957032 68.886719c14.417968 10.898437 33.113281-6.554688 23.332031-21.675781l-30.820313-47.597657c25.101563-3.140625 44.589844-24.613281 44.589844-50.546875v-71.773437c0-4.210938-3.417969-7.628907-7.628906-7.628907zm-478.628906 327.003907 29.554687-45.652344h30.738281zm459.53125-140.007813c-.871094.804688 4.464843 4.324219-76.058594-56.660156h40.265625c39.101562 60.394531 36.660156 55.855469 35.792969 56.660156zm0 0"/><path d="m461.066406 0h-203.972656c-4.210938 0-7.628906 3.417969-7.628906 7.628906 0 4.21875 3.417968 7.628906 7.628906 7.628906h203.972656c19.667969 0 35.675782 16.007813 35.675782 35.675782v92.097656c0 4.210938 3.410156 7.625 7.628906 7.625 4.210937 0 7.628906-3.414062 7.628906-7.625v-92.097656c0-28.082032-22.851562-50.933594-50.933594-50.933594zm0 0"/><path d="m43.980469 359.3125 5.515625-19.101562h33.105468l5.519532 19.113281c2.15625 6.894531 17.066406 2.144531 14.820312-4.550781l-27.152344-88.871094c-2.324218-6.964844-17.097656-7.144532-19.480468.011718l-27.285156 88.847657c-2.242188 6.722656 12.800781 11.453125 14.957031 4.550781zm22-76.484375 13.035156 44.707031h-26.066406zm0 0"/><path d="m173.175781 285.671875c0-16.304687-9.226562-24.230469-28.207031-24.230469h-24.957031c-3.351563 0-6.953125 1.660156-6.953125 5.308594v90.777344c0 2.507812 2.433594 5.171875 6.953125 5.171875h27.835937c12.679688 0 27.796875-5.085938 27.796875-29.304688 0-11.992187-1.773437-20.664062-13.375-25.546875 6.949219-3.640625 10.90625-11.640625 10.90625-22.175781zm-44.703125-10.324219h15.535156c9.035157 0 13.617188 4.257813 13.617188 12.65625 0 9.164063-4.367188 13.617188-13.34375 13.617188h-15.808594zm16.632813 73.445313h-16.632813v-34.636719h16.632813c12.421875 0 14.984375 7.054688 14.984375 18.140625.003906 10.945313-5.039063 16.496094-14.984375 16.496094zm0 0"/><path d="m219.429688 275.347656c9.769531 0 14.996093 4.777344 15.535156 14.1875.140625 3.410156 2.902344 5.285156 7.777344 5.285156 4.921874 0 7.773437-1.316406 7.773437-8.050781 0-15.148437-12.710937-25.328125-31.632813-25.328125-19.671874 0-30.953124 11.332032-30.953124 31.085938v39.90625c0 19.757812 11.230468 31.085937 30.8125 31.085937 19.007812 0 31.773437-10.507812 31.773437-26.148437 0-6.707032-3.027344-8.054688-7.910156-8.054688-4.800781 0-7.371094 1.773438-7.636719 5.265625-.664062 7.269531-2.441406 15.03125-15.265625 15.03125-10.914063 0-16.21875-5.621093-16.21875-17.183593v-39.902344c-.003906-11.398438 5.363281-17.179688 15.945313-17.179688zm0 0"/></svg>